<svg xmlns="http://www.w3.org/2000/svg" xmlns:xlink="http://www.w3.org/1999/xlink" width="500" zoomAndPan="magnify" viewBox="0 0 375 374.999991" height="500" preserveAspectRatio="xMidYMid meet" version="1.0"><defs><g/></defs><path stroke-linecap="butt" transform="matrix(1.176125, 0, 0, 1.176125, 68.448794, -28.713671)" fill="none" stroke-linejoin="miter" d="M 102.75441 210.100444 L 82.786818 210.100444 C 79.688055 210.100444 78.137013 211.648165 78.137013 214.750249 L 78.137013 268.687988 C 78.137013 271.786751 79.688055 273.337793 82.786818 273.337793 L 88.150701 273.337793 C 91.209608 273.337793 92.740722 271.786751 92.740722 268.687988 L 92.740722 263.324105 C 92.740722 260.225342 94.291765 258.6743 97.390527 258.6743 L 102.75441 258.6743 C 105.853173 258.6743 107.404215 257.146507 107.404215 254.0876 L 107.404215 214.750249 C 107.404215 211.648165 105.853173 210.100444 102.75441 210.100444 Z M 26.879555 283.35148 L 26.879555 277.987598 C 26.879555 274.888835 25.331834 273.337793 22.233071 273.337793 L 16.865868 273.337793 C 13.767105 273.337793 12.219384 271.786751 12.219384 268.687988 L 12.219384 214.750249 C 12.219384 211.648165 13.767105 210.100444 16.865868 210.100444 L 22.233071 210.100444 C 25.331834 210.100444 26.879555 208.56933 26.879555 205.510422 L 26.879555 200.086757 C 26.879555 197.027849 28.41067 195.496735 31.469577 195.496735 L 88.150701 195.496735 C 91.209608 195.496735 92.740722 193.949014 92.740722 190.850251 L 92.740722 185.483048 C 92.740722 182.384285 94.291765 180.836564 97.390527 180.836564 L 110.084495 180.836564 C 113.183258 180.836564 114.7343 179.285522 114.7343 176.186759 L 114.7343 136.371143 C 114.7343 133.312235 113.183258 131.784442 110.084495 131.784442 L 97.390527 131.784442 C 94.291765 131.784442 92.740722 133.312235 92.740722 136.371143 L 92.740722 156.398517 C 92.740722 159.49728 91.209608 161.048322 88.150701 161.048322 L 82.786818 161.048322 C 79.688055 161.048322 78.137013 162.596043 78.137013 165.698127 L 78.137013 178.392095 C 78.137013 181.490858 76.589292 183.0419 73.49053 183.0419 L 24.199275 183.0419 C 21.100512 183.0419 19.54947 181.490858 19.54947 178.392095 L 19.54947 136.371143 C 19.54947 133.312235 21.100512 131.784442 24.199275 131.784442 L 33.199969 131.784442 C 36.298732 131.784442 37.846453 130.2334 37.846453 127.134637 L 37.846453 121.770755 C 37.846453 118.671992 39.397495 117.12095 42.496258 117.12095 L 154.071651 117.12095 C 157.130558 117.12095 158.661673 118.671992 158.661673 121.770755 L 158.661673 127.134637 C 158.661673 130.2334 160.209394 131.784442 163.308157 131.784442 L 168.67536 131.784442 C 171.774123 131.784442 173.321844 133.312235 173.321844 136.371143 L 173.321844 283.35148 C 173.321844 286.450243 171.774123 288.001285 168.67536 288.001285 L 126.714191 288.001285 C 123.615428 288.001285 122.064386 286.450243 122.064386 283.35148 L 122.064386 277.987598 C 122.064386 274.888835 120.516665 273.337793 117.414581 273.337793 L 112.050699 273.337793 C 108.951936 273.337793 107.404215 274.888835 107.404215 277.987598 L 107.404215 283.35148 C 107.404215 286.450243 105.853173 288.001285 102.75441 288.001285 L 31.469577 288.001285 C 28.41067 288.001285 26.879555 286.450243 26.879555 283.35148 Z M 26.879555 283.35148 " stroke="#171616" stroke-width="18.31035" stroke-opacity="1" stroke-miterlimit="4"/><g fill="#fff9f9" fill-opacity="1"><g transform="translate(68.448794, 310.010207)"><g><path d="M 120.875 -91.59375 L 97.328125 -91.59375 C 93.691406 -91.59375 91.875 -89.773438 91.875 -86.140625 L 91.875 -22.6875 C 91.875 -19.050781 93.691406 -17.234375 97.328125 -17.234375 L 103.65625 -17.234375 C 107.289062 -17.234375 109.109375 -19.050781 109.109375 -22.6875 L 109.109375 -29 C 109.109375 -32.632812 110.925781 -34.453125 114.5625 -34.453125 L 120.875 -34.453125 C 124.507812 -34.453125 126.328125 -36.269531 126.328125 -39.90625 L 126.328125 -86.140625 C 126.328125 -89.773438 124.507812 -91.59375 120.875 -91.59375 Z M 31.578125 -5.453125 L 31.578125 -11.765625 C 31.578125 -15.410156 29.757812 -17.234375 26.125 -17.234375 L 19.8125 -17.234375 C 16.175781 -17.234375 14.359375 -19.050781 14.359375 -22.6875 L 14.359375 -86.140625 C 14.359375 -89.773438 16.175781 -91.59375 19.8125 -91.59375 L 26.125 -91.59375 C 29.757812 -91.59375 31.578125 -93.410156 31.578125 -97.046875 L 31.578125 -103.359375 C 31.578125 -107.003906 33.398438 -108.828125 37.046875 -108.828125 L 103.65625 -108.828125 C 107.289062 -108.828125 109.109375 -110.644531 109.109375 -114.28125 L 109.109375 -120.59375 C 109.109375 -124.226562 110.925781 -126.046875 114.5625 -126.046875 L 129.5 -126.046875 C 133.132812 -126.046875 134.953125 -127.863281 134.953125 -131.5 L 134.953125 -178.3125 C 134.953125 -181.945312 133.132812 -183.765625 129.5 -183.765625 L 114.5625 -183.765625 C 110.925781 -183.765625 109.109375 -181.945312 109.109375 -178.3125 L 109.109375 -154.765625 C 109.109375 -151.128906 107.289062 -149.3125 103.65625 -149.3125 L 97.328125 -149.3125 C 93.691406 -149.3125 91.875 -147.488281 91.875 -143.84375 L 91.875 -128.921875 C 91.875 -125.285156 90.054688 -123.46875 86.421875 -123.46875 L 28.421875 -123.46875 C 24.785156 -123.46875 22.96875 -125.285156 22.96875 -128.921875 L 22.96875 -178.3125 C 22.96875 -181.945312 24.785156 -183.765625 28.421875 -183.765625 L 39.046875 -183.765625 C 42.679688 -183.765625 44.5 -185.582031 44.5 -189.21875 L 44.5 -195.53125 C 44.5 -199.164062 46.316406 -200.984375 49.953125 -200.984375 L 181.171875 -200.984375 C 184.804688 -200.984375 186.625 -199.164062 186.625 -195.53125 L 186.625 -189.21875 C 186.625 -185.582031 188.445312 -183.765625 192.09375 -183.765625 L 198.40625 -183.765625 C 202.039062 -183.765625 203.859375 -181.945312 203.859375 -178.3125 L 203.859375 -5.453125 C 203.859375 -1.816406 202.039062 0 198.40625 0 L 149.015625 0 C 145.378906 0 143.5625 -1.816406 143.5625 -5.453125 L 143.5625 -11.765625 C 143.5625 -15.410156 141.742188 -17.234375 138.109375 -17.234375 L 131.796875 -17.234375 C 128.148438 -17.234375 126.328125 -15.410156 126.328125 -11.765625 L 126.328125 -5.453125 C 126.328125 -1.816406 124.507812 0 120.875 0 L 37.046875 0 C 33.398438 0 31.578125 -1.816406 31.578125 -5.453125 Z M 31.578125 -5.453125 "/></g></g></g></svg>