<svg xmlns="http://www.w3.org/2000/svg" xmlns:xlink="http://www.w3.org/1999/xlink" width="500" zoomAndPan="magnify" viewBox="0 0 375 374.999991" height="500" preserveAspectRatio="xMidYMid meet" version="1.0"><defs><g/></defs><path stroke-linecap="butt" transform="matrix(0.75, 0, 0, 0.75, 141.370366, 105.248928)" fill="none" stroke-linejoin="miter" d="M 34.568681 166.277482 L 34.568681 163.131648 C 34.568681 161.31394 33.657223 160.407689 31.844723 160.407689 L 28.698889 160.407689 C 26.881181 160.407689 25.974931 159.496231 25.974931 157.683731 L 25.974931 154.537897 C 25.974931 152.720189 25.079097 151.813939 23.282222 151.813939 L 20.141597 151.813939 C 18.323889 151.813939 17.417639 150.918106 17.417639 149.126439 L 17.417639 88.725393 C 17.417639 86.912893 18.323889 86.001435 20.141597 86.001435 L 23.282222 86.001435 C 25.079097 86.001435 25.974931 85.105601 25.974931 83.313934 L 25.974931 80.131643 C 25.974931 78.339976 26.881181 77.444142 28.698889 77.444142 L 31.844723 77.444142 C 33.657223 77.444142 34.568681 76.537892 34.568681 74.720184 L 34.568681 71.57435 C 34.568681 69.756642 35.474932 68.850392 37.29264 68.850392 L 91.95931 68.850392 C 93.777019 68.850392 94.683269 69.756642 94.683269 71.57435 L 94.683269 74.720184 C 94.683269 76.537892 95.579102 77.444142 97.375977 77.444142 L 100.516602 77.444142 C 102.334311 77.444142 103.240561 78.339976 103.240561 80.131643 L 103.240561 83.313934 C 103.240561 85.105601 104.152019 86.001435 105.969728 86.001435 L 109.110353 86.001435 C 110.928061 86.001435 111.834312 86.912893 111.834312 88.725393 L 111.834312 111.923311 C 111.834312 113.735811 110.928061 114.64727 109.110353 114.64727 L 105.969728 114.64727 C 104.152019 114.64727 103.240561 115.543103 103.240561 117.33477 L 103.240561 120.480604 C 103.240561 122.298312 102.334311 123.204562 100.516602 123.204562 L 58.740558 123.204562 C 56.948891 123.204562 56.04785 124.110812 56.04785 125.928521 L 56.04785 157.683731 C 56.04785 159.496231 56.948891 160.407689 58.740558 160.407689 L 61.917642 160.407689 C 63.714517 160.407689 64.61035 159.496231 64.61035 157.683731 L 64.61035 154.537897 C 64.61035 152.720189 65.5166 151.813939 67.334309 151.813939 L 70.474934 151.813939 C 72.292642 151.813939 73.204101 150.918106 73.204101 149.126439 L 73.204101 139.235813 C 73.204101 137.423313 74.110351 136.511855 75.928059 136.511855 L 109.110353 136.511855 C 110.928061 136.511855 111.834312 137.423313 111.834312 139.235813 L 111.834312 149.126439 C 111.834312 150.918106 110.928061 151.813939 109.110353 151.813939 L 105.969728 151.813939 C 104.152019 151.813939 103.240561 152.720189 103.240561 154.537897 L 103.240561 157.683731 C 103.240561 159.496231 102.334311 160.407689 100.516602 160.407689 L 97.375977 160.407689 C 95.579102 160.407689 94.683269 161.31394 94.683269 163.131648 L 94.683269 166.277482 C 94.683269 168.089982 93.777019 169.00144 91.95931 169.00144 L 37.29264 169.00144 C 35.474932 169.00144 34.568681 168.089982 34.568681 166.277482 Z M 58.740558 114.64727 L 70.474934 114.64727 C 72.292642 114.64727 73.204101 113.735811 73.204101 111.923311 L 73.204101 80.131643 C 73.204101 78.339976 72.292642 77.444142 70.474934 77.444142 L 67.334309 77.444142 C 65.5166 77.444142 64.61035 78.339976 64.61035 80.131643 L 64.61035 83.313934 C 64.61035 85.105601 63.714517 86.001435 61.917642 86.001435 L 58.740558 86.001435 C 56.948891 86.001435 56.04785 86.912893 56.04785 88.725393 L 56.04785 111.923311 C 56.04785 113.735811 56.948891 114.64727 58.740558 114.64727 Z M 58.740558 114.64727 " stroke="#000000" stroke-width="1.967364" stroke-opacity="1" stroke-miterlimit="4"/><g fill="#fff9f9" fill-opacity="1"><g transform="translate(146.913334, 231.99892)"><g><path d="M 20.390625 -2.03125 L 20.390625 -4.40625 C 20.390625 -5.757812 19.707031 -6.4375 18.34375 -6.4375 L 15.984375 -6.4375 C 14.628906 -6.4375 13.953125 -7.117188 13.953125 -8.484375 L 13.953125 -10.84375 C 13.953125 -12.195312 13.269531 -12.875 11.90625 -12.875 L 9.546875 -12.875 C 8.191406 -12.875 7.515625 -13.554688 7.515625 -14.921875 L 7.515625 -60.203125 C 7.515625 -61.554688 8.191406 -62.234375 9.546875 -62.234375 L 11.90625 -62.234375 C 13.269531 -62.234375 13.953125 -62.914062 13.953125 -64.28125 L 13.953125 -66.640625 C 13.953125 -68.003906 14.628906 -68.6875 15.984375 -68.6875 L 18.34375 -68.6875 C 19.707031 -68.6875 20.390625 -69.363281 20.390625 -70.71875 L 20.390625 -73.078125 C 20.390625 -74.441406 21.066406 -75.125 22.421875 -75.125 L 63.421875 -75.125 C 64.773438 -75.125 65.453125 -74.441406 65.453125 -73.078125 L 65.453125 -70.71875 C 65.453125 -69.363281 66.132812 -68.6875 67.5 -68.6875 L 69.859375 -68.6875 C 71.222656 -68.6875 71.90625 -68.003906 71.90625 -66.640625 L 71.90625 -64.28125 C 71.90625 -62.914062 72.582031 -62.234375 73.9375 -62.234375 L 76.296875 -62.234375 C 77.660156 -62.234375 78.34375 -61.554688 78.34375 -60.203125 L 78.34375 -42.8125 C 78.34375 -41.457031 77.660156 -40.78125 76.296875 -40.78125 L 73.9375 -40.78125 C 72.582031 -40.78125 71.90625 -40.097656 71.90625 -38.734375 L 71.90625 -36.375 C 71.90625 -35.019531 71.222656 -34.34375 69.859375 -34.34375 L 38.53125 -34.34375 C 37.164062 -34.34375 36.484375 -33.660156 36.484375 -32.296875 L 36.484375 -8.484375 C 36.484375 -7.117188 37.164062 -6.4375 38.53125 -6.4375 L 40.890625 -6.4375 C 42.242188 -6.4375 42.921875 -7.117188 42.921875 -8.484375 L 42.921875 -10.84375 C 42.921875 -12.195312 43.601562 -12.875 44.96875 -12.875 L 47.328125 -12.875 C 48.679688 -12.875 49.359375 -13.554688 49.359375 -14.921875 L 49.359375 -22.328125 C 49.359375 -23.679688 50.039062 -24.359375 51.40625 -24.359375 L 76.296875 -24.359375 C 77.660156 -24.359375 78.34375 -23.679688 78.34375 -22.328125 L 78.34375 -14.921875 C 78.34375 -13.554688 77.660156 -12.875 76.296875 -12.875 L 73.9375 -12.875 C 72.582031 -12.875 71.90625 -12.195312 71.90625 -10.84375 L 71.90625 -8.484375 C 71.90625 -7.117188 71.222656 -6.4375 69.859375 -6.4375 L 67.5 -6.4375 C 66.132812 -6.4375 65.453125 -5.757812 65.453125 -4.40625 L 65.453125 -2.03125 C 65.453125 -0.675781 64.773438 0 63.421875 0 L 22.421875 0 C 21.066406 0 20.390625 -0.675781 20.390625 -2.03125 Z M 38.53125 -40.78125 L 47.328125 -40.78125 C 48.679688 -40.78125 49.359375 -41.457031 49.359375 -42.8125 L 49.359375 -66.640625 C 49.359375 -68.003906 48.679688 -68.6875 47.328125 -68.6875 L 44.96875 -68.6875 C 43.601562 -68.6875 42.921875 -68.003906 42.921875 -66.640625 L 42.921875 -64.28125 C 42.921875 -62.914062 42.242188 -62.234375 40.890625 -62.234375 L 38.53125 -62.234375 C 37.164062 -62.234375 36.484375 -61.554688 36.484375 -60.203125 L 36.484375 -42.8125 C 36.484375 -41.457031 37.164062 -40.78125 38.53125 -40.78125 Z M 38.53125 -40.78125 "/></g></g></g><path stroke-linecap="butt" transform="matrix(0.75, 0, 0, 0.75, 74.681776, 105.488107)" fill="none" stroke-linejoin="miter" d="M 29.117008 166.276284 L 29.117008 163.130451 C 29.117008 161.312742 28.215967 160.406492 26.4243 160.406492 L 23.283675 160.406492 C 21.465966 160.406492 20.554508 159.500242 20.554508 157.682534 L 20.554508 71.573153 C 20.554508 69.760653 21.465966 68.849195 23.283675 68.849195 L 56.465969 68.849195 C 58.283677 68.849195 59.189927 69.760653 59.189927 71.573153 L 59.189927 157.682534 C 59.189927 159.500242 60.08576 160.406492 61.882636 160.406492 L 66.038886 160.406492 C 67.856594 160.406492 68.762844 159.500242 68.762844 157.682534 L 68.762844 154.5367 C 68.762844 152.7242 69.669094 151.812742 71.486803 151.812742 L 74.632636 151.812742 C 76.445136 151.812742 77.356595 150.916908 77.356595 149.125241 L 77.356595 71.573153 C 77.356595 69.760653 78.262845 68.849195 80.080553 68.849195 L 113.262847 68.849195 C 115.080556 68.849195 115.992014 69.760653 115.992014 71.573153 L 115.992014 131.93774 C 115.992014 133.755449 115.080556 134.661699 113.262847 134.661699 L 108.549305 134.661699 C 106.731597 134.661699 105.825347 135.567949 105.825347 137.385657 L 105.825347 140.531491 C 105.825347 142.349199 104.919097 143.255449 103.101388 143.255449 L 99.955555 143.255449 C 98.137846 143.255449 97.231596 144.1617 97.231596 145.979408 L 97.231596 149.125241 C 97.231596 150.916908 96.325346 151.812742 94.507638 151.812742 L 91.361804 151.812742 C 89.544096 151.812742 88.637846 152.7242 88.637846 154.5367 L 88.637846 157.682534 C 88.637846 159.500242 87.742012 160.406492 85.950345 160.406492 L 84.518054 160.406492 C 82.700345 160.406492 81.794095 161.312742 81.794095 163.130451 L 81.794095 166.276284 C 81.794095 168.093993 80.882637 169.000243 79.064928 169.000243 L 31.840967 169.000243 C 30.023258 169.000243 29.117008 168.093993 29.117008 166.276284 Z M 29.117008 166.276284 " stroke="#000000" stroke-width="1.967364" stroke-opacity="1" stroke-miterlimit="4"/><g fill="#fff9f9" fill-opacity="1"><g transform="translate(82.580213, 232.238099)"><g><path d="M 13.953125 -2.03125 L 13.953125 -4.40625 C 13.953125 -5.757812 13.269531 -6.4375 11.90625 -6.4375 L 9.546875 -6.4375 C 8.191406 -6.4375 7.515625 -7.117188 7.515625 -8.484375 L 7.515625 -73.078125 C 7.515625 -74.441406 8.191406 -75.125 9.546875 -75.125 L 34.453125 -75.125 C 35.804688 -75.125 36.484375 -74.441406 36.484375 -73.078125 L 36.484375 -8.484375 C 36.484375 -7.117188 37.164062 -6.4375 38.53125 -6.4375 L 41.640625 -6.4375 C 42.992188 -6.4375 43.671875 -7.117188 43.671875 -8.484375 L 43.671875 -10.84375 C 43.671875 -12.195312 44.351562 -12.875 45.71875 -12.875 L 48.078125 -12.875 C 49.429688 -12.875 50.109375 -13.554688 50.109375 -14.921875 L 50.109375 -73.078125 C 50.109375 -74.441406 50.789062 -75.125 52.15625 -75.125 L 77.046875 -75.125 C 78.410156 -75.125 79.09375 -74.441406 79.09375 -73.078125 L 79.09375 -27.796875 C 79.09375 -26.429688 78.410156 -25.75 77.046875 -25.75 L 73.515625 -25.75 C 72.148438 -25.75 71.46875 -25.070312 71.46875 -23.71875 L 71.46875 -21.359375 C 71.46875 -19.992188 70.789062 -19.3125 69.4375 -19.3125 L 67.0625 -19.3125 C 65.707031 -19.3125 65.03125 -18.632812 65.03125 -17.28125 L 65.03125 -14.921875 C 65.03125 -13.554688 64.351562 -12.875 63 -12.875 L 60.625 -12.875 C 59.269531 -12.875 58.59375 -12.195312 58.59375 -10.84375 L 58.59375 -8.484375 C 58.59375 -7.117188 57.910156 -6.4375 56.546875 -6.4375 L 55.484375 -6.4375 C 54.117188 -6.4375 53.4375 -5.757812 53.4375 -4.40625 L 53.4375 -2.03125 C 53.4375 -0.675781 52.757812 0 51.40625 0 L 15.984375 0 C 14.628906 0 13.953125 -0.675781 13.953125 -2.03125 Z M 13.953125 -2.03125 "/></g></g></g><path stroke-linecap="butt" transform="matrix(0.75, 0, 0, 0.75, 204.614405, 105.488107)" fill="none" stroke-linejoin="miter" d="M 34.566212 166.276284 L 34.566212 163.130451 C 34.566212 161.312742 33.659962 160.406492 31.842253 160.406492 L 28.69642 160.406492 C 26.883919 160.406492 25.972461 159.500242 25.972461 157.682534 L 25.972461 154.5367 C 25.972461 152.7242 25.076628 151.812742 23.284961 151.812742 L 20.139127 151.812742 C 18.326627 151.812742 17.415169 150.916908 17.415169 149.125241 L 17.415169 88.729404 C 17.415169 86.911696 18.326627 86.000237 20.139127 86.000237 L 23.284961 86.000237 C 25.076628 86.000237 25.972461 85.104404 25.972461 83.312737 L 25.972461 80.135654 C 25.972461 78.338779 26.883919 77.442945 28.69642 77.442945 L 31.842253 77.442945 C 33.659962 77.442945 34.566212 76.536695 34.566212 74.718987 L 34.566212 71.573153 C 34.566212 69.760653 35.47767 68.849195 37.29017 68.849195 L 91.962049 68.849195 C 93.774549 68.849195 94.686007 69.760653 94.686007 71.573153 L 94.686007 74.718987 C 94.686007 76.536695 95.581841 77.442945 97.373507 77.442945 L 100.519341 77.442945 C 102.337049 77.442945 103.243299 78.338779 103.243299 80.135654 L 103.243299 83.312737 C 103.243299 85.104404 104.14955 86.000237 105.967258 86.000237 L 109.113092 86.000237 C 110.925592 86.000237 111.83705 86.911696 111.83705 88.729404 L 111.83705 111.922114 C 111.83705 113.739823 110.925592 114.646073 109.113092 114.646073 L 105.967258 114.646073 C 104.14955 114.646073 103.243299 115.541906 103.243299 117.333573 L 103.243299 120.479406 C 103.243299 122.297115 102.337049 123.203365 100.519341 123.203365 L 58.738088 123.203365 C 56.946421 123.203365 56.050588 124.114823 56.050588 125.927323 L 56.050588 157.682534 C 56.050588 159.500242 56.946421 160.406492 58.738088 160.406492 L 61.92038 160.406492 C 63.712047 160.406492 64.60788 159.500242 64.60788 157.682534 L 64.60788 154.5367 C 64.60788 152.7242 65.519339 151.812742 67.331839 151.812742 L 70.477672 151.812742 C 72.295381 151.812742 73.201631 150.916908 73.201631 149.125241 L 73.201631 139.239824 C 73.201631 137.422116 74.107881 136.515866 75.925589 136.515866 L 109.113092 136.515866 C 110.925592 136.515866 111.83705 137.422116 111.83705 139.239824 L 111.83705 149.125241 C 111.83705 150.916908 110.925592 151.812742 109.113092 151.812742 L 105.967258 151.812742 C 104.14955 151.812742 103.243299 152.7242 103.243299 154.5367 L 103.243299 157.682534 C 103.243299 159.500242 102.337049 160.406492 100.519341 160.406492 L 97.373507 160.406492 C 95.581841 160.406492 94.686007 161.312742 94.686007 163.130451 L 94.686007 166.276284 C 94.686007 168.093993 93.774549 169.000243 91.962049 169.000243 L 37.29017 169.000243 C 35.47767 169.000243 34.566212 168.093993 34.566212 166.276284 Z M 58.738088 114.646073 L 70.477672 114.646073 C 72.295381 114.646073 73.201631 113.739823 73.201631 111.922114 L 73.201631 80.135654 C 73.201631 78.338779 72.295381 77.442945 70.477672 77.442945 L 67.331839 77.442945 C 65.519339 77.442945 64.60788 78.338779 64.60788 80.135654 L 64.60788 83.312737 C 64.60788 85.104404 63.712047 86.000237 61.92038 86.000237 L 58.738088 86.000237 C 56.946421 86.000237 56.050588 86.911696 56.050588 88.729404 L 56.050588 111.922114 C 56.050588 113.739823 56.946421 114.646073 58.738088 114.646073 Z M 58.738088 114.646073 " stroke="#000000" stroke-width="1.967364" stroke-opacity="1" stroke-miterlimit="4"/><g fill="#fff9f9" fill-opacity="1"><g transform="translate(210.157374, 232.238099)"><g><path d="M 20.390625 -2.03125 L 20.390625 -4.40625 C 20.390625 -5.757812 19.707031 -6.4375 18.34375 -6.4375 L 15.984375 -6.4375 C 14.628906 -6.4375 13.953125 -7.117188 13.953125 -8.484375 L 13.953125 -10.84375 C 13.953125 -12.195312 13.269531 -12.875 11.90625 -12.875 L 9.546875 -12.875 C 8.191406 -12.875 7.515625 -13.554688 7.515625 -14.921875 L 7.515625 -60.203125 C 7.515625 -61.554688 8.191406 -62.234375 9.546875 -62.234375 L 11.90625 -62.234375 C 13.269531 -62.234375 13.953125 -62.914062 13.953125 -64.28125 L 13.953125 -66.640625 C 13.953125 -68.003906 14.628906 -68.6875 15.984375 -68.6875 L 18.34375 -68.6875 C 19.707031 -68.6875 20.390625 -69.363281 20.390625 -70.71875 L 20.390625 -73.078125 C 20.390625 -74.441406 21.066406 -75.125 22.421875 -75.125 L 63.421875 -75.125 C 64.773438 -75.125 65.453125 -74.441406 65.453125 -73.078125 L 65.453125 -70.71875 C 65.453125 -69.363281 66.132812 -68.6875 67.5 -68.6875 L 69.859375 -68.6875 C 71.222656 -68.6875 71.90625 -68.003906 71.90625 -66.640625 L 71.90625 -64.28125 C 71.90625 -62.914062 72.582031 -62.234375 73.9375 -62.234375 L 76.296875 -62.234375 C 77.660156 -62.234375 78.34375 -61.554688 78.34375 -60.203125 L 78.34375 -42.8125 C 78.34375 -41.457031 77.660156 -40.78125 76.296875 -40.78125 L 73.9375 -40.78125 C 72.582031 -40.78125 71.90625 -40.097656 71.90625 -38.734375 L 71.90625 -36.375 C 71.90625 -35.019531 71.222656 -34.34375 69.859375 -34.34375 L 38.53125 -34.34375 C 37.164062 -34.34375 36.484375 -33.660156 36.484375 -32.296875 L 36.484375 -8.484375 C 36.484375 -7.117188 37.164062 -6.4375 38.53125 -6.4375 L 40.890625 -6.4375 C 42.242188 -6.4375 42.921875 -7.117188 42.921875 -8.484375 L 42.921875 -10.84375 C 42.921875 -12.195312 43.601562 -12.875 44.96875 -12.875 L 47.328125 -12.875 C 48.679688 -12.875 49.359375 -13.554688 49.359375 -14.921875 L 49.359375 -22.328125 C 49.359375 -23.679688 50.039062 -24.359375 51.40625 -24.359375 L 76.296875 -24.359375 C 77.660156 -24.359375 78.34375 -23.679688 78.34375 -22.328125 L 78.34375 -14.921875 C 78.34375 -13.554688 77.660156 -12.875 76.296875 -12.875 L 73.9375 -12.875 C 72.582031 -12.875 71.90625 -12.195312 71.90625 -10.84375 L 71.90625 -8.484375 C 71.90625 -7.117188 71.222656 -6.4375 69.859375 -6.4375 L 67.5 -6.4375 C 66.132812 -6.4375 65.453125 -5.757812 65.453125 -4.40625 L 65.453125 -2.03125 C 65.453125 -0.675781 64.773438 0 63.421875 0 L 22.421875 0 C 21.066406 0 20.390625 -0.675781 20.390625 -2.03125 Z M 38.53125 -40.78125 L 47.328125 -40.78125 C 48.679688 -40.78125 49.359375 -41.457031 49.359375 -42.8125 L 49.359375 -66.640625 C 49.359375 -68.003906 48.679688 -68.6875 47.328125 -68.6875 L 44.96875 -68.6875 C 43.601562 -68.6875 42.921875 -68.003906 42.921875 -66.640625 L 42.921875 -64.28125 C 42.921875 -62.914062 42.242188 -62.234375 40.890625 -62.234375 L 38.53125 -62.234375 C 37.164062 -62.234375 36.484375 -61.554688 36.484375 -60.203125 L 36.484375 -42.8125 C 36.484375 -41.457031 37.164062 -40.78125 38.53125 -40.78125 Z M 38.53125 -40.78125 "/></g></g></g><path stroke-linecap="butt" transform="matrix(0.75, 0, 0, 0.75, 267.908718, 105.248928)" fill="none" stroke-linejoin="miter" d="M 15.99671 166.277482 L 15.99671 71.57435 C 15.99671 69.756642 16.90296 68.850392 18.720669 68.850392 L 39.012337 68.850392 C 40.830045 68.850392 41.736295 69.756642 41.736295 71.57435 L 41.736295 83.313934 C 41.736295 85.105601 42.647754 86.001435 44.465462 86.001435 L 47.606087 86.001435 C 49.423796 86.001435 50.330046 85.105601 50.330046 83.313934 L 50.330046 80.131643 C 50.330046 78.339976 51.241504 77.444142 53.054004 77.444142 L 56.199838 77.444142 C 58.017546 77.444142 58.923796 76.537892 58.923796 74.720184 L 58.923796 71.57435 C 58.923796 69.756642 59.81963 68.850392 61.616505 68.850392 L 99.095674 68.850392 C 100.913382 68.850392 101.819633 69.756642 101.819633 71.57435 L 101.819633 74.720184 C 101.819633 76.537892 102.731091 77.444142 104.543591 77.444142 L 107.689425 77.444142 C 108.460258 77.444142 108.840466 77.444142 108.840466 77.444142 C 108.840466 77.444142 108.460258 77.444142 107.689425 77.444142 L 104.543591 77.444142 C 103.777966 77.444142 103.392549 77.444142 103.392549 77.444142 C 103.392549 77.444142 103.777966 77.444142 104.543591 77.444142 L 107.689425 77.444142 C 109.507133 77.444142 110.413383 78.339976 110.413383 80.131643 L 110.413383 166.277482 C 110.413383 168.089982 109.507133 169.00144 107.689425 169.00144 L 74.507131 169.00144 C 72.689422 169.00144 71.777964 168.089982 71.777964 166.277482 L 71.777964 80.131643 C 71.777964 78.339976 70.871714 77.444142 69.054005 77.444142 L 65.91338 77.444142 C 64.095672 77.444142 63.184213 78.339976 63.184213 80.131643 L 63.184213 83.313934 C 63.184213 85.105601 62.28838 86.001435 60.496713 86.001435 L 57.31963 86.001435 C 55.522755 86.001435 54.626921 86.912893 54.626921 88.725393 L 54.626921 166.277482 C 54.626921 168.089982 53.720671 169.00144 51.902963 169.00144 L 18.720669 169.00144 C 16.90296 169.00144 15.99671 168.089982 15.99671 166.277482 Z M 15.99671 166.277482 " stroke="#000000" stroke-width="1.967364" stroke-opacity="1" stroke-miterlimit="4"/><g fill="#fff9f9" fill-opacity="1"><g transform="translate(272.38528, 231.99892)"><g><path d="M 7.515625 -2.03125 L 7.515625 -73.078125 C 7.515625 -74.441406 8.191406 -75.125 9.546875 -75.125 L 24.796875 -75.125 C 26.148438 -75.125 26.828125 -74.441406 26.828125 -73.078125 L 26.828125 -64.28125 C 26.828125 -62.914062 27.503906 -62.234375 28.859375 -62.234375 L 31.234375 -62.234375 C 32.585938 -62.234375 33.265625 -62.914062 33.265625 -64.28125 L 33.265625 -66.640625 C 33.265625 -68.003906 33.945312 -68.6875 35.3125 -68.6875 L 37.671875 -68.6875 C 39.023438 -68.6875 39.703125 -69.363281 39.703125 -70.71875 L 39.703125 -73.078125 C 39.703125 -74.441406 40.382812 -75.125 41.75 -75.125 L 69.859375 -75.125 C 71.222656 -75.125 71.90625 -74.441406 71.90625 -73.078125 L 71.90625 -70.71875 C 71.90625 -69.363281 72.582031 -68.6875 73.9375 -68.6875 L 76.296875 -68.6875 C 76.867188 -68.6875 77.15625 -68.6875 77.15625 -68.6875 C 77.15625 -68.6875 76.867188 -68.6875 76.296875 -68.6875 L 73.9375 -68.6875 C 73.363281 -68.6875 73.078125 -68.6875 73.078125 -68.6875 C 73.078125 -68.6875 73.363281 -68.6875 73.9375 -68.6875 L 76.296875 -68.6875 C 77.660156 -68.6875 78.34375 -68.003906 78.34375 -66.640625 L 78.34375 -2.03125 C 78.34375 -0.675781 77.660156 0 76.296875 0 L 51.40625 0 C 50.039062 0 49.359375 -0.675781 49.359375 -2.03125 L 49.359375 -66.640625 C 49.359375 -68.003906 48.679688 -68.6875 47.328125 -68.6875 L 44.96875 -68.6875 C 43.601562 -68.6875 42.921875 -68.003906 42.921875 -66.640625 L 42.921875 -64.28125 C 42.921875 -62.914062 42.242188 -62.234375 40.890625 -62.234375 L 38.53125 -62.234375 C 37.164062 -62.234375 36.484375 -61.554688 36.484375 -60.203125 L 36.484375 -2.03125 C 36.484375 -0.675781 35.804688 0 34.453125 0 L 9.546875 0 C 8.191406 0 7.515625 -0.675781 7.515625 -2.03125 Z M 7.515625 -2.03125 "/></g></g></g><path stroke-linecap="butt" transform="matrix(0.75, 0, 0, 0.75, 12.275, 105.248928)" fill="none" stroke-linejoin="miter" d="M 71.97188 123.345187 L 60.268754 123.345187 C 58.451046 123.345187 57.544796 124.251437 57.544796 126.069146 L 57.544796 157.683731 C 57.544796 159.496231 58.451046 160.407689 60.268754 160.407689 L 63.414588 160.407689 C 65.206255 160.407689 66.102088 159.496231 66.102088 157.683731 L 66.102088 154.537897 C 66.102088 152.720189 67.013546 151.813939 68.826046 151.813939 L 71.97188 151.813939 C 73.789588 151.813939 74.695839 150.918106 74.695839 149.126439 L 74.695839 126.069146 C 74.695839 124.251437 73.789588 123.345187 71.97188 123.345187 Z M 27.503127 166.277482 L 27.503127 163.131648 C 27.503127 161.31394 26.596877 160.407689 24.779169 160.407689 L 21.633335 160.407689 C 19.820835 160.407689 18.909377 159.496231 18.909377 157.683731 L 18.909377 126.069146 C 18.909377 124.251437 19.820835 123.345187 21.633335 123.345187 L 24.779169 123.345187 C 26.596877 123.345187 27.503127 122.449354 27.503127 120.652479 L 27.503127 117.475395 C 27.503127 115.683728 28.39896 114.787895 30.195836 114.787895 L 63.414588 114.787895 C 65.206255 114.787895 66.102088 113.876436 66.102088 112.063936 L 66.102088 108.918103 C 66.102088 107.100394 67.013546 106.194144 68.826046 106.194144 L 76.268755 106.194144 C 78.086464 106.194144 78.992714 105.282686 78.992714 103.470186 L 78.992714 80.131643 C 78.992714 78.339976 78.086464 77.444142 76.268755 77.444142 L 68.826046 77.444142 C 67.013546 77.444142 66.102088 78.339976 66.102088 80.131643 L 66.102088 91.871227 C 66.102088 93.688935 65.206255 94.595185 63.414588 94.595185 L 60.268754 94.595185 C 58.451046 94.595185 57.544796 95.501435 57.544796 97.319144 L 57.544796 104.761852 C 57.544796 106.579561 56.638546 107.485811 54.820837 107.485811 L 25.93021 107.485811 C 24.11771 107.485811 23.206252 106.579561 23.206252 104.761852 L 23.206252 80.131643 C 23.206252 78.339976 24.11771 77.444142 25.93021 77.444142 L 31.206252 77.444142 C 33.023961 77.444142 33.930211 76.537892 33.930211 74.720184 L 33.930211 71.57435 C 33.930211 69.756642 34.841669 68.850392 36.654169 68.850392 L 102.050007 68.850392 C 103.841674 68.850392 104.737507 69.756642 104.737507 71.57435 L 104.737507 74.720184 C 104.737507 76.537892 105.643757 77.444142 107.461466 77.444142 L 110.607299 77.444142 C 112.425008 77.444142 113.331258 78.339976 113.331258 80.131643 L 113.331258 166.277482 C 113.331258 168.089982 112.425008 169.00144 110.607299 169.00144 L 86.013548 169.00144 C 84.195839 169.00144 83.289589 168.089982 83.289589 166.277482 L 83.289589 163.131648 C 83.289589 161.31394 82.383339 160.407689 80.565631 160.407689 L 77.419797 160.407689 C 75.607297 160.407689 74.695839 161.31394 74.695839 163.131648 L 74.695839 166.277482 C 74.695839 168.089982 73.789588 169.00144 71.97188 169.00144 L 30.195836 169.00144 C 28.39896 169.00144 27.503127 168.089982 27.503127 166.277482 Z M 27.503127 166.277482 " stroke="#000000" stroke-width="1.967364" stroke-opacity="1" stroke-miterlimit="4"/><g fill="#fff9f9" fill-opacity="1"><g transform="translate(21.087499, 231.99892)"><g><path d="M 45.171875 -34.234375 L 36.375 -34.234375 C 35.019531 -34.234375 34.34375 -33.550781 34.34375 -32.1875 L 34.34375 -8.484375 C 34.34375 -7.117188 35.019531 -6.4375 36.375 -6.4375 L 38.734375 -6.4375 C 40.097656 -6.4375 40.78125 -7.117188 40.78125 -8.484375 L 40.78125 -10.84375 C 40.78125 -12.195312 41.457031 -12.875 42.8125 -12.875 L 45.171875 -12.875 C 46.535156 -12.875 47.21875 -13.554688 47.21875 -14.921875 L 47.21875 -32.1875 C 47.21875 -33.550781 46.535156 -34.234375 45.171875 -34.234375 Z M 11.796875 -2.03125 L 11.796875 -4.40625 C 11.796875 -5.757812 11.117188 -6.4375 9.765625 -6.4375 L 7.40625 -6.4375 C 6.039062 -6.4375 5.359375 -7.117188 5.359375 -8.484375 L 5.359375 -32.1875 C 5.359375 -33.550781 6.039062 -34.234375 7.40625 -34.234375 L 9.765625 -34.234375 C 11.117188 -34.234375 11.796875 -34.910156 11.796875 -36.265625 L 11.796875 -38.625 C 11.796875 -39.988281 12.476562 -40.671875 13.84375 -40.671875 L 38.734375 -40.671875 C 40.097656 -40.671875 40.78125 -41.347656 40.78125 -42.703125 L 40.78125 -45.078125 C 40.78125 -46.429688 41.457031 -47.109375 42.8125 -47.109375 L 48.390625 -47.109375 C 49.753906 -47.109375 50.4375 -47.789062 50.4375 -49.15625 L 50.4375 -66.640625 C 50.4375 -68.003906 49.753906 -68.6875 48.390625 -68.6875 L 42.8125 -68.6875 C 41.457031 -68.6875 40.78125 -68.003906 40.78125 -66.640625 L 40.78125 -57.84375 C 40.78125 -56.476562 40.097656 -55.796875 38.734375 -55.796875 L 36.375 -55.796875 C 35.019531 -55.796875 34.34375 -55.117188 34.34375 -53.765625 L 34.34375 -48.1875 C 34.34375 -46.820312 33.660156 -46.140625 32.296875 -46.140625 L 10.625 -46.140625 C 9.257812 -46.140625 8.578125 -46.820312 8.578125 -48.1875 L 8.578125 -66.640625 C 8.578125 -68.003906 9.257812 -68.6875 10.625 -68.6875 L 14.59375 -68.6875 C 15.957031 -68.6875 16.640625 -69.363281 16.640625 -70.71875 L 16.640625 -73.078125 C 16.640625 -74.441406 17.316406 -75.125 18.671875 -75.125 L 67.71875 -75.125 C 69.070312 -75.125 69.75 -74.441406 69.75 -73.078125 L 69.75 -70.71875 C 69.75 -69.363281 70.429688 -68.6875 71.796875 -68.6875 L 74.15625 -68.6875 C 75.507812 -68.6875 76.1875 -68.003906 76.1875 -66.640625 L 76.1875 -2.03125 C 76.1875 -0.675781 75.507812 0 74.15625 0 L 55.6875 0 C 54.332031 0 53.65625 -0.675781 53.65625 -2.03125 L 53.65625 -4.40625 C 53.65625 -5.757812 52.976562 -6.4375 51.625 -6.4375 L 49.25 -6.4375 C 47.894531 -6.4375 47.21875 -5.757812 47.21875 -4.40625 L 47.21875 -2.03125 C 47.21875 -0.675781 46.535156 0 45.171875 0 L 13.84375 0 C 12.476562 0 11.796875 -0.675781 11.796875 -2.03125 Z M 11.796875 -2.03125 "/></g></g></g></svg>